{
  "accessors": [
    {
      "bufferView": 2,
      "componentType": 5126,
      "count": 287,
      "max": [
        0.33807387948036194,
        0.7255613207817078,
        0.3499997556209564
      ],
      "min": [
        -0.33807387948036194,
        -2.2351741790771484e-08,
        -0.3499997556209564
      ],
      "type": "VEC3"
    },
    {
      "bufferView": 2,
      "byteOffset": 3444,
      "componentType": 5126,
      "count": 287,
      "max": [
        0.9999065399169922,
        0.9608935713768005,
        0.9999632835388184
      ],
      "min": [
        -0.9999065399169922,
        -0.8821555972099304,
        -0.9999632835388184
      ],
      "type": "VEC3"
    },
    {
      "bufferView": 1,
      "componentType": 5126,
      "count": 287,
      "max": [
        1.0,
        0.7500001192092896
      ],
      "min": [
        0.0,
        0.0833330750465393
      ],
      "type": "VEC2"
    },
    {
      "bufferView": 0,
      "componentType": 5125,
      "count": 1284,
      "type": "SCALAR"
    },
    {
      "bufferView": 2,
      "byteOffset": 6888,
      "componentType": 5126,
      "count": 196,
      "max": [
        0.26490139961242676,
        0.09418356418609619,
        0.09058663994073868
      ],
      "min": [
        -0.11533478647470474,
        -0.47665560245513916,
        -0.0905865803360939
      ],
      "type": "VEC3"
    },
    {
      "bufferView": 2,
      "byteOffset": 9240,
      "componentType": 5126,
      "count": 196,
      "max": [
        0.9999363422393799,
        0.9152930974960327,
        0.9955903887748718
      ],
      "min": [
        -0.9909266233444214,
        -0.9949954748153687,
        -0.9955903887748718
      ],
      "type": "VEC3"
    },
    {
      "bufferView": 1,
      "byteOffset": 2296,
      "componentType": 5126,
      "count": 196,
      "max": [
        0.5459316968917847,
        0.5837615132331848
      ],
      "min": [
        0.4583333730697632,
        0.08333313465118408
      ],
      "type": "VEC2"
    },
    {
      "bufferView": 0,
      "byteOffset": 5136,
      "componentType": 5125,
      "count": 978,
      "type": "SCALAR"
    },
    {
      "bufferView": 2,
      "byteOffset": 11592,
      "componentType": 5126,
      "count": 216,
      "max": [
        0.11533510684967041,
        0.09418362379074097,
        0.09058663249015808
      ],
      "min": [
        -0.26490116119384766,
        -0.4766555428504944,
        -0.0905865952372551
      ],
      "type": "VEC3"
    },
    {
      "bufferView": 2,
      "byteOffset": 14184,
      "componentType": 5126,
      "count": 216,
      "max": [
        0.9909266233444214,
        0.915276825428009,
        0.9955903887748718
      ],
      "min": [
        -0.9999363422393799,
        -0.9949954748153687,
        -0.9955903887748718
      ],
      "type": "VEC3"
    },
    {
      "bufferView": 1,
      "byteOffset": 3864,
      "componentType": 5126,
      "count": 216,
      "max": [
        1.0,
        0.5837615132331848
      ],
      "min": [
        0.0,
        0.08333313465118408
      ],
      "type": "VEC2"
    },
    {
      "bufferView": 0,
      "byteOffset": 9048,
      "componentType": 5125,
      "count": 978,
      "type": "SCALAR"
    },
    {
      "bufferView": 2,
      "byteOffset": 16776,
      "componentType": 5126,
      "count": 904,
      "max": [
        0.6946033835411072,
        0.9339144229888916,
        0.675747811794281
      ],
      "min": [
        -0.6946104168891907,
        0.0,
        -0.49999961256980896
      ],
      "type": "VEC3"
    },
    {
      "bufferView": 2,
      "byteOffset": 27624,
      "componentType": 5126,
      "count": 904,
      "max": [
        1.0,
        1.0,
        1.0
      ],
      "min": [
        -1.0,
        -1.0,
        -1.0
      ],
      "type": "VEC3"
    },
    {
      "bufferView": 1,
      "byteOffset": 5592,
      "componentType": 5126,
      "count": 904,
      "max": [
        1.0,
        1.0
      ],
      "min": [
        0.0,
        0.0
      ],
      "type": "VEC2"
    },
    {
      "bufferView": 0,
      "byteOffset": 12960,
      "componentType": 5125,
      "count": 3600,
      "type": "SCALAR"
    },
    {
      "bufferView": 2,
      "byteOffset": 38472,
      "componentType": 5126,
      "count": 64,
      "max": [
        0.06676916778087616,
        0.28054362535476685,
        0.6090513467788696
      ],
      "min": [
        -0.06676924228668213,
        0.08927077054977417,
        0.541892945766449
      ],
      "type": "VEC3"
    },
    {
      "bufferView": 2,
      "byteOffset": 39240,
      "componentType": 5126,
      "count": 64,
      "max": [
        0.9238803386688232,
        0.0,
        0.9914725422859192
      ],
      "min": [
        -0.9238803386688232,
        -0.9188639521598816,
        -0.9914725422859192
      ],
      "type": "VEC3"
    },
    {
      "bufferView": 1,
      "byteOffset": 12824,
      "componentType": 5126,
      "count": 64,
      "max": [
        0.5682275891304016,
        0.9467291235923767
      ],
      "min": [
        0.125,
        0.0
      ],
      "type": "VEC2"
    },
    {
      "bufferView": 0,
      "byteOffset": 27360,
      "componentType": 5125,
      "count": 222,
      "type": "SCALAR"
    },
    {
      "bufferView": 2,
      "byteOffset": 40008,
      "componentType": 5126,
      "count": 182,
      "max": [
        0.33058083057403564,
        0.4932206869125366,
        0.728752076625824
      ],
      "min": [
        -0.33058077096939087,
        0.264190673828125,
        0.3631858825683594
      ],
      "type": "VEC3"
    },
    {
      "bufferView": 2,
      "byteOffset": 42192,
      "componentType": 5126,
      "count": 182,
      "max": [
        0.9745432734489441,
        0.9862838387489319,
        0.997092068195343
      ],
      "min": [
        -0.9745432734489441,
        -0.9830287098884583,
        -0.678935170173645
      ],
      "type": "VEC3"
    },
    {
      "bufferView": 1,
      "byteOffset": 13336,
      "componentType": 5126,
      "count": 182,
      "max": [
        1.0,
        1.0
      ],
      "min": [
        -5.960464477539063e-08,
        0.0
      ],
      "type": "VEC2"
    },
    {
      "bufferView": 0,
      "byteOffset": 28248,
      "componentType": 5125,
      "count": 594,
      "type": "SCALAR"
    }
  ],
  "asset": {
    "extras": {
      "author": "Captain Capsule (https://sketchfab.com/CaptainCapsule)",
      "license": "CC-BY-4.0 (http://creativecommons.org/licenses/by/4.0/)",
      "source": "https://sketchfab.com/3d-models/doggy-ducky-style-character-8510d1e9177c470ca1493e81dc754a52",
      "title": "Doggy - Ducky style character"
    },
    "generator": "Sketchfab-15.46.0",
    "version": "2.0"
  },
  "bufferViews": [
    {
      "buffer": 0,
      "byteLength": 30624,
      "name": "floatBufferViews",
      "target": 34963
    },
    {
      "buffer": 0,
      "byteLength": 14792,
      "byteOffset": 30624,
      "byteStride": 8,
      "name": "floatBufferViews",
      "target": 34962
    },
    {
      "buffer": 0,
      "byteLength": 44376,
      "byteOffset": 45416,
      "byteStride": 12,
      "name": "floatBufferViews",
      "target": 34962
    }
  ],
  "buffers": [
    {
      "byteLength": 89792,
      "uri": "scene.bin"
    }
  ],
  "materials": [
    {
      "name": "Beige",
      "pbrMetallicRoughness": {
        "baseColorFactor": [
          0.702916,
          0.425324,
          0.206894,
          1.0
        ],
        "metallicFactor": 0.0,
        "roughnessFactor": 0.5
      }
    },
    {
      "name": "material",
      "pbrMetallicRoughness": {
        "baseColorFactor": [
          1.0,
          0.0250529,
          0.118025,
          1.0
        ],
        "metallicFactor": 0.0,
        "roughnessFactor": 0.5
      }
    },
    {
      "name": "Black",
      "pbrMetallicRoughness": {
        "baseColorFactor": [
          0.019794,
          0.0320759,
          0.0374082,
          1.0
        ],
        "metallicFactor": 0.0,
        "roughnessFactor": 0.5
      }
    }
  ],
  "meshes": [
    {
      "name": "Object_0",
      "primitives": [
        {
          "attributes": {
            "NORMAL": 1,
            "POSITION": 0,
            "TEXCOORD_0": 2
          },
          "indices": 3,
          "material": 0,
          "mode": 4
        }
      ]
    },
    {
      "name": "Object_1",
      "primitives": [
        {
          "attributes": {
            "NORMAL": 5,
            "POSITION": 4,
            "TEXCOORD_0": 6
          },
          "indices": 7,
          "material": 0,
          "mode": 4
        }
      ]
    },
    {
      "name": "Object_2",
      "primitives": [
        {
          "attributes": {
            "NORMAL": 9,
            "POSITION": 8,
            "TEXCOORD_0": 10
          },
          "indices": 11,
          "material": 0,
          "mode": 4
        }
      ]
    },
    {
      "name": "Object_3",
      "primitives": [
        {
          "attributes": {
            "NORMAL": 13,
            "POSITION": 12,
            "TEXCOORD_0": 14
          },
          "indices": 15,
          "material": 0,
          "mode": 4
        }
      ]
    },
    {
      "name": "Object_4",
      "primitives": [
        {
          "attributes": {
            "NORMAL": 17,
            "POSITION": 16,
            "TEXCOORD_0": 18
          },
          "indices": 19,
          "material": 1,
          "mode": 4
        }
      ]
    },
    {
      "name": "Object_5",
      "primitives": [
        {
          "attributes": {
            "NORMAL": 21,
            "POSITION": 20,
            "TEXCOORD_0": 22
          },
          "indices": 23,
          "material": 2,
          "mode": 4
        }
      ]
    }
  ],
  "nodes": [
    {
      "children": [
        1
      ],
      "matrix": [
        1.0,
        0.0,
        0.0,
        0.0,
        0.0,
        2.220446049250313e-16,
        -1.0,
        0.0,
        0.0,
        1.0,
        2.220446049250313e-16,
        0.0,
        0.0,
        0.0,
        0.0,
        1.0
      ],
      "name": "Sketchfab_model"
    },
    {
      "children": [
        2
      ],
      "name": "root"
    },
    {
      "children": [
        3
      ],
      "matrix": [
        1.0,
        0.0,
        0.0,
        0.0,
        0.0,
        2.220446049250313e-16,
        1.0,
        0.0,
        0.0,
        -1.0,
        2.220446049250313e-16,
        0.0,
        0.0,
        0.0,
        0.0,
        1.0
      ],
      "name": "GLTF_SceneRootNode"
    },
    {
      "children": [
        4,
        5,
        7,
        9
      ],
      "name": "character_dog_3"
    },
    {
      "mesh": 0,
      "name": "Object_4"
    },
    {
      "children": [
        6
      ],
      "matrix": [
        1.0,
        0.0,
        0.0,
        0.0,
        0.0,
        1.0,
        0.0,
        0.0,
        0.0,
        0.0,
        1.0,
        0.0,
        0.20404481887817383,
        0.6335563659667969,
        0.0,
        1.0
      ],
      "name": "character_dogArmLeft_0"
    },
    {
      "mesh": 1,
      "name": "Object_6"
    },
    {
      "children": [
        8
      ],
      "matrix": [
        1.0,
        0.0,
        0.0,
        0.0,
        0.0,
        1.0,
        0.0,
        0.0,
        0.0,
        0.0,
        1.0,
        0.0,
        -0.20404601097106934,
        0.6335563063621521,
        0.0,
        1.0
      ],
      "name": "character_dogArmRight_1"
    },
    {
      "mesh": 2,
      "name": "Object_8"
    },
    {
      "children": [
        10,
        11,
        12
      ],
      "matrix": [
        1.0,
        0.0,
        0.0,
        0.0,
        0.0,
        1.0,
        0.0,
        0.0,
        0.0,
        0.0,
        1.0,
        0.0,
        0.0,
        0.7037111520767212,
        0.0,
        1.0
      ],
      "name": "character_dogHead_2"
    },
    {
      "mesh": 3,
      "name": "Object_10"
    },
    {
      "mesh": 4,
      "name": "Object_11"
    },
    {
      "mesh": 5,
      "name": "Object_12"
    }
  ],
  "scene": 0,
  "scenes": [
    {
      "name": "Sketchfab_Scene",
      "nodes": [
        0
      ]
    }
  ]
}
